<svg width="84" height="59" viewBox="0 0 84 59" fill="none" xmlns="http://www.w3.org/2000/svg">
<path d="M29.8262 47L29.8262 11.4531H18.8887C15.7637 11.4531 12.9723 12.1611 10.5146 13.5771C8.04069 14.9769 6.11198 16.9788 4.72852 19.583C3.34505 22.1709 2.65332 25.1169 2.65332 28.4209V30.0566C2.65332 33.3607 3.33691 36.2985 4.7041 38.8701C6.05501 41.4417 7.96745 43.4355 10.4414 44.8516C12.9154 46.2676 15.7067 46.9837 18.8154 47H29.8262ZM22.502 17.3857V41.1162H18.9619C16.0973 41.1162 13.9082 40.1803 12.3945 38.3086C10.8809 36.4368 10.1077 33.7594 10.0752 30.2764V28.3965C10.0752 24.7832 10.8239 22.0488 12.3213 20.1934C13.8187 18.3216 16.0078 17.3857 18.8887 17.3857H22.502Z" fill="white"/>
<path d="M32.7441 11.4531L41.875 37.2344L50.957 11.4531H60.5762V47H53.2275V37.2832L53.96 20.5107L44.3652 47H39.3359L29.7656 20.5352L30.498 37.2832V47H23.1738V11.4531H32.7441Z" fill="white"/>
<path d="M55.1738 47V11.4531H67.625C71.9382 11.4531 75.2096 12.2832 77.4395 13.9434C79.6693 15.5872 80.7842 18.0042 80.7842 21.1943C80.7842 22.9359 80.3366 24.474 79.4414 25.8086C78.5462 27.127 77.3011 28.0954 75.7061 28.7139C77.529 29.1696 78.9613 30.0892 80.0029 31.4727C81.0609 32.8561 81.5898 34.5488 81.5898 36.5508C81.5898 39.9688 80.4993 42.5566 78.3184 44.3145C76.1374 46.0723 73.0286 46.9674 68.9922 47H55.1738ZM62.498 31.5215V41.1162H68.7725C70.4977 41.1162 71.8405 40.7093 72.8008 39.8955C73.7773 39.0654 74.2656 37.9261 74.2656 36.4775C74.2656 33.2223 72.5811 31.5703 69.2119 31.5215H62.498ZM62.498 26.3457H67.918C71.6126 26.2806 73.46 24.8076 73.46 21.9268C73.46 20.3154 72.988 19.1598 72.0439 18.46C71.1162 17.7438 69.6432 17.3857 67.625 17.3857H62.498V26.3457Z" fill="white"/>
</svg>
